<svg width="130" height="91" viewBox="0 0 130 91" fill="none" xmlns="http://www.w3.org/2000/svg">
<g clip-path="url(#clip0_1206_1389)">
<path d="M60.1574 7.94226C60.4251 7.96936 60.694 7.98261 60.963 7.98197C63.2323 7.98197 64.3158 6.88705 64.747 6.22897C64.9926 5.86221 65.1606 5.44905 65.2406 5.01492C64.4574 5.54346 63.5233 5.80236 62.5798 5.75242C62.048 5.75164 61.5177 5.69652 60.997 5.5879C60.4866 5.48482 60.0045 5.27282 59.5835 4.96637C59.1625 4.65993 58.8125 4.26625 58.5576 3.81221C58.3909 3.47937 58.3041 3.11225 58.3041 2.73999C58.3041 2.36773 58.3909 2.0006 58.5576 1.66776C58.9068 0.973717 59.4358 0.386 60.0893 -0.0341797C59.749 0.0906294 59.4142 0.221112 59.0965 0.362941C58.3335 0.64482 57.6455 1.09841 57.0858 1.68864C56.5261 2.27887 56.1096 2.98993 55.8685 3.76682C55.7901 4.11224 55.7886 4.47067 55.8641 4.81674C55.9396 5.1628 56.0902 5.48804 56.3054 5.76944C57.261 6.96347 58.6412 7.74197 60.1574 7.94226Z" fill="#4E4F51"/>
<path d="M51.6329 14.9034C53.0699 15.7295 54.6503 16.2762 56.2906 16.5145C57.2135 16.6406 58.1472 16.6691 59.0761 16.5996C61.7538 16.4181 63.9323 15.7146 65.5548 14.5176C66.1602 14.0956 66.7126 13.6023 67.2 13.0482C69.0154 10.8414 69.9685 7.47722 67.7673 5.31008L67.7163 5.25902C67.7119 5.32703 67.7119 5.39525 67.7163 5.46325C67.7391 5.66306 67.7391 5.8648 67.7163 6.06461C67.4497 10.2344 61.6801 12.1803 57.8677 12.1803C57.6692 12.1803 57.4819 12.1803 57.3004 12.1803C56.0085 12.1156 54.7471 11.7649 53.6072 11.1534C51.7067 10.0188 50.2997 7.52828 50.85 5.23633C49.3126 6.93827 48.2291 9.39474 48.6886 11.3463C49.046 12.827 50.4302 14.2112 51.6329 14.9034Z" fill="#4E4F51"/>
<path d="M48.12 24.508C49.3681 26.6241 51.8075 28.1331 54.8086 28.6437C55.5188 28.7665 56.238 28.8291 56.9587 28.8309C60.4788 28.7574 63.9208 27.7806 66.9548 25.9943C69.0536 24.8053 70.937 23.2709 72.5258 21.4558C74.0229 19.7618 75.0679 17.7171 75.5638 15.5114C76.0596 13.3057 75.9904 11.0105 75.3624 8.83877C74.9125 7.40416 74.1599 6.08282 73.1556 4.96401C72.388 4.11086 71.4946 3.38004 70.5062 2.79688C70.8259 3.07042 71.1202 3.37233 71.3855 3.6989C71.9023 4.32381 72.3405 5.0097 72.6904 5.74123C73.1212 6.66547 73.3752 7.66221 73.4392 8.67992C73.506 10.3002 73.2489 11.9174 72.6829 13.4371C72.1169 14.9567 71.2535 16.3482 70.1431 17.53C68.9336 18.8161 67.5305 19.9052 65.9847 20.758C65.2777 21.1556 64.5463 21.508 63.7949 21.8132C60.2945 23.2372 56.6694 23.6684 53.6456 22.9989C52.7424 22.8015 51.8689 22.4868 51.0473 22.0629C49.2016 21.1333 47.7256 19.6054 46.8605 17.7286C46.8328 18.4362 46.8499 19.1449 46.9116 19.8503C46.9722 21.4721 47.3845 23.0613 48.12 24.508Z" fill="#4E4F51"/>
<path d="M81.9084 23.827C83.4458 19.5098 83.4288 14.6252 81.8574 10.7788C80.9384 8.40261 79.5925 6.21458 77.8862 4.32275C80.2741 7.50399 81.5067 11.404 81.3808 15.3797C81.3552 16.8508 81.1533 18.3136 80.7795 19.7367C79.9455 22.9477 78.0847 25.9771 75.2652 28.8137C74.2596 29.801 73.1701 30.6988 72.0088 31.4971C68.8646 33.6695 65.1309 34.8276 61.3092 34.8159C59.837 34.8169 58.3694 34.6494 56.9353 34.3166L56.6289 34.2429C58.4546 35.1405 60.4293 35.6962 62.4552 35.8824C66.25 36.1786 70.0525 35.4145 73.4384 33.6756C76.2882 32.2213 78.6651 29.986 80.2916 27.2309C80.95 26.157 81.492 25.0159 81.9084 23.827Z" fill="#4E4F51"/>
<path d="M6.7624 81.6308C6.39487 81.1087 5.89898 80.69 5.32257 80.4153C4.74615 80.1405 4.10867 80.0189 3.47159 80.0623C2.83452 80.1056 2.21937 80.3124 1.68546 80.6626C1.15155 81.0129 0.716905 81.4948 0.423454 82.0619C0.130003 82.6291 -0.0123531 83.2622 0.0101137 83.9004C0.0325805 84.5385 0.219115 85.1601 0.551722 85.7052C0.88433 86.2503 1.35179 86.7004 1.909 87.0123C2.46622 87.3241 3.0944 87.4871 3.73294 87.4855C4.32725 87.5059 4.91698 87.3749 5.44686 87.105C5.97673 86.8351 6.42939 86.4351 6.7624 85.9424V86.5097C6.7745 86.911 6.70629 87.3106 6.56175 87.6852C6.41721 88.0597 6.19927 88.4016 5.92074 88.6907C5.6422 88.9798 5.30869 89.2103 4.9398 89.3687C4.57092 89.5271 4.17409 89.6101 3.77265 89.613C3.08075 89.6065 2.41046 89.3711 1.86647 88.9435C1.53543 88.6829 1.25964 88.3589 1.05522 87.9904L0.975792 87.8656H0.283673L0.368766 88.0585C0.677812 88.7113 1.16751 89.2619 1.77984 89.645C2.39216 90.0281 3.10147 90.2276 3.82371 90.22C4.30741 90.212 4.78465 90.1075 5.22739 89.9125C5.67013 89.7176 6.06944 89.4361 6.40187 89.0846C6.7343 88.7332 6.99314 88.3188 7.16319 87.8659C7.33325 87.413 7.41108 86.9307 7.39212 86.4473V80.2806H6.7624V81.6308ZM3.77265 86.8785C3.16107 86.8886 2.56031 86.7165 2.04693 86.3839C1.53354 86.0514 1.13077 85.5736 0.889928 85.0113C0.649087 84.4491 0.581083 83.8279 0.694576 83.2268C0.80807 82.6258 1.09793 82.0721 1.52721 81.6364C1.9565 81.2007 2.50578 80.9026 3.10507 80.7802C3.70436 80.6578 4.32653 80.7166 4.8923 80.949C5.45808 81.1815 5.94184 81.5771 6.28196 82.0855C6.62208 82.5939 6.80315 83.192 6.80211 83.8037C6.81443 84.2069 6.74484 84.6086 6.59754 84.9842C6.45024 85.3598 6.22829 85.7017 5.94512 85.9891C5.66194 86.2765 5.32342 86.5035 4.95002 86.6564C4.57661 86.8093 4.17608 86.8848 3.77265 86.8785Z" fill="#4E4F51"/>
<path d="M18.6705 81.6306C18.3021 81.1137 17.8071 80.7001 17.2329 80.4296C16.6587 80.159 16.0246 80.0405 15.3915 80.0855C14.7583 80.1304 14.1474 80.3373 13.6172 80.6862C13.0869 81.0352 12.6553 81.5145 12.3636 82.0783C12.0719 82.642 11.9299 83.2712 11.9513 83.9056C11.9727 84.54 12.1567 85.1582 12.4858 85.701C12.8148 86.2438 13.2778 86.693 13.8303 87.0054C14.3828 87.3179 15.0063 87.4831 15.641 87.4853C16.2339 87.5042 16.822 87.3739 17.3514 87.1062C17.8807 86.8386 18.3343 86.4422 18.6705 85.9535V87.3207H19.3002V80.2804H18.6705V81.6306ZM15.6751 86.8782C15.0635 86.8884 14.4627 86.7162 13.9494 86.3837C13.436 86.0512 13.0332 85.5733 12.7924 85.0111C12.5515 84.4488 12.4835 83.8276 12.597 83.2266C12.7105 82.6255 13.0004 82.0719 13.4297 81.6362C13.8589 81.2004 14.4082 80.9024 15.0075 80.78C15.6068 80.6575 16.229 80.7163 16.7947 80.9488C17.3605 81.1812 17.8443 81.5768 18.1844 82.0852C18.5245 82.5936 18.7056 83.1917 18.7045 83.8034C18.7129 84.2057 18.6406 84.6055 18.4918 84.9794C18.3431 85.3532 18.121 85.6935 17.8386 85.9801C17.5563 86.2667 17.2193 86.4938 16.8477 86.6481C16.4762 86.8023 16.0774 86.8806 15.6751 86.8782Z" fill="#4E4F51"/>
<path d="M25.786 81.1828V80.2807H25.1562V87.3211H25.786V83.5201C25.7379 83.0913 25.7897 82.6571 25.9373 82.2516C26.0849 81.8461 26.3244 81.4803 26.6369 81.1828C27.0416 80.8783 27.5377 80.7203 28.0439 80.7346H28.1744V80.1162H28.0269C27.5957 80.1047 27.1679 80.1953 26.7784 80.3806C26.389 80.566 26.0489 80.8409 25.786 81.1828Z" fill="#4E4F51"/>
<path d="M38.3386 81.6366C37.9709 81.1187 37.4762 80.704 36.902 80.4323C36.3278 80.1607 35.6934 80.0413 35.0598 80.0855C34.4261 80.1298 33.8145 80.3362 33.2836 80.685C32.7527 81.0338 32.3205 81.5133 32.0283 82.0773C31.7362 82.6413 31.594 83.271 31.6154 83.9059C31.6368 84.5407 31.8211 85.1594 32.1505 85.7025C32.48 86.2456 32.9435 86.6948 33.4967 87.0071C34.0498 87.3194 34.674 87.4842 35.3092 87.4856C35.9017 87.5025 36.4891 87.3712 37.0181 87.1038C37.547 86.8363 38.0009 86.4411 38.3386 85.9539V87.3211H38.9627V77.603H38.3386V81.6366ZM35.3432 86.8786C34.7316 86.8888 34.1309 86.7166 33.6175 86.3841C33.1041 86.0515 32.7013 85.5737 32.4605 85.0115C32.2196 84.4492 32.1516 83.828 32.2651 83.2269C32.3786 82.6259 32.6685 82.0722 33.0978 81.6365C33.527 81.2008 34.0763 80.9028 34.6756 80.7803C35.2749 80.6579 35.8971 80.7167 36.4628 80.9491C37.0286 81.1816 37.5124 81.5772 37.8525 82.0856C38.1926 82.594 38.3737 83.1921 38.3727 83.8038C38.3818 84.2062 38.31 84.6064 38.1616 84.9806C38.0131 85.3548 37.7911 85.6954 37.5085 85.9822C37.226 86.2689 36.8887 86.4961 36.5168 86.65C36.1448 86.804 35.7458 86.8818 35.3432 86.8786Z" fill="#4E4F51"/>
<path d="M47.9569 80.1162C47.4684 80.1047 46.9827 80.192 46.5288 80.373C46.0749 80.5539 45.6623 80.8247 45.3157 81.1692C44.9692 81.5136 44.6958 81.9245 44.5121 82.3773C44.3284 82.83 44.2381 83.3153 44.2466 83.8038C44.2389 84.2904 44.3295 84.7735 44.5129 85.2242C44.6964 85.6749 44.9691 86.0839 45.3145 86.4267C45.6599 86.7695 46.071 87.0389 46.5231 87.219C46.9752 87.399 47.459 87.4858 47.9455 87.4743H47.9853C48.7086 87.4945 49.4211 87.2949 50.0288 86.9019C50.6364 86.509 51.1107 85.9411 51.3891 85.2731L51.4742 85.0859H50.7481L50.714 85.1653C50.466 85.6907 50.0695 86.132 49.5734 86.4344C49.0773 86.7369 48.5035 86.8874 47.9228 86.8673C47.1418 86.8653 46.3913 86.5634 45.8264 86.0238C45.2616 85.4843 44.9255 84.7485 44.8877 83.9683H51.6104V83.6336C51.5794 82.687 51.1803 81.7898 50.498 81.1329C49.8157 80.4761 48.904 80.1113 47.9569 80.1162ZM44.9161 83.3953C45.0009 82.6529 45.3607 81.9691 45.9246 81.4788C46.4885 80.9884 47.2155 80.727 47.9626 80.746H48.0647C48.7875 80.7717 49.4779 81.0524 50.0137 81.5383C50.5495 82.0243 50.896 82.6841 50.992 83.401L44.9161 83.3953Z" fill="#4E4F51"/>
<path d="M59.5792 80.1161H59.4998C59.0205 80.1069 58.5451 80.2039 58.1076 80.4C57.6702 80.5962 57.2815 80.8867 56.9696 81.2507V80.2749H56.3398V87.3153H56.9866V83.2873C56.9866 81.6762 57.9397 80.7401 59.5962 80.7174C60.2564 80.6883 60.9043 80.9023 61.4173 81.3188C61.6993 81.6212 61.9146 81.9794 62.0495 82.3703C62.1844 82.7612 62.2357 83.1761 62.2002 83.588V87.2983H62.8299V83.588C62.8299 82.3172 62.4839 81.3812 61.7974 80.8025C61.1643 80.315 60.377 80.0713 59.5792 80.1161Z" fill="#4E4F51"/>
<path d="M69.9906 83.276H69.9282C68.9127 82.998 68.578 82.7087 68.5496 82.0109C68.5372 81.8528 68.5581 81.6939 68.6108 81.5444C68.6636 81.3949 68.7471 81.2581 68.856 81.1429C68.9964 81.0059 69.1636 80.8994 69.3472 80.8301C69.5307 80.7608 69.7266 80.7301 69.9225 80.7401C70.0938 80.7287 70.2655 80.7546 70.4258 80.816C70.5861 80.8775 70.7312 80.973 70.8509 81.096C70.9707 81.219 71.0623 81.3665 71.1195 81.5284C71.1766 81.6903 71.1979 81.8626 71.182 82.0336V82.1697H71.8117V82.0336C71.825 81.7785 71.7842 81.5235 71.692 81.2854C71.5997 81.0473 71.4581 80.8313 71.2765 80.6518C71.0948 80.4723 70.8772 80.3333 70.638 80.2439C70.3988 80.1545 70.1433 80.1167 69.8885 80.1331C69.6316 80.1129 69.3733 80.1473 69.1307 80.234C68.888 80.3207 68.6665 80.4578 68.4805 80.6362C68.2946 80.8146 68.1485 81.0303 68.0519 81.2692C67.9553 81.5081 67.9103 81.7647 67.9199 82.0222C67.9596 83.259 68.7765 83.588 69.8488 83.9C70.921 84.212 71.3521 84.5524 71.3748 85.3921C71.3853 85.5908 71.3541 85.7895 71.2833 85.9755C71.2125 86.1615 71.1037 86.3306 70.9638 86.4721C70.8239 86.6137 70.656 86.7244 70.4708 86.7973C70.2857 86.8702 70.0873 86.9036 69.8885 86.8954C69.6777 86.9104 69.4662 86.8802 69.2682 86.8067C69.0701 86.7331 68.89 86.6181 68.7401 86.4693C68.5902 86.3204 68.4738 86.1412 68.3989 85.9436C68.324 85.7461 68.2922 85.5348 68.3057 85.324V85.1878H67.6816V85.3183C67.6607 85.5879 67.6962 85.8588 67.7861 86.1138C67.876 86.3688 68.0182 86.6022 68.2036 86.799C68.424 87.0265 68.6888 87.2063 68.9816 87.3273C69.2743 87.4483 69.5888 87.5079 69.9055 87.5025C70.1981 87.4977 70.4866 87.4328 70.753 87.3118C71.0195 87.1908 71.2582 87.0162 71.4543 86.799C71.6482 86.6005 71.7988 86.3639 71.8965 86.1041C71.9941 85.8443 72.0367 85.5671 72.0216 85.2899C71.9251 83.8036 70.8529 83.5142 69.9906 83.276Z" fill="#4E4F51"/>
<path d="M87.3568 70.4264H78.45V47.8359H77.3438V71.4419H86.6647L87.3568 70.4264Z" fill="#4E4F51"/>
<path d="M51.8 70.4264H42.8875V47.8359H41.7812V71.4419H51.1022L51.8 70.4264Z" fill="#4E4F51"/>
<path d="M129.727 71.4419V47.8359H128.626V59.0517H114.001V47.8359H112.895V71.4419H114.001V60.0672H128.626V71.4419H129.727Z" fill="#4E4F51"/>
<path d="M17.1338 65.2411C17.1338 60.1352 11.2735 59.2616 9.84383 58.9439C5.80456 58.1213 1.90144 57.1966 1.95817 53.475C1.95817 50.3945 4.93089 48.3692 8.65815 48.3692C13.0435 48.3692 14.4845 50.7349 15.0121 52.5729L16.2999 52.9644C15.6645 49.1294 12.1755 47.5068 8.7319 47.5068C4.49407 47.5068 0.65335 49.7364 0.789505 53.6452C0.789505 58.0589 5.89533 59.046 8.47661 59.5566C11.3132 60.1579 15.9652 61.0486 15.9652 65.3716C15.9652 68.7414 12.2776 70.9653 8.59007 70.9653C6.40024 70.9653 2.31558 70.0405 1.41355 65.8594L0.148438 65.4453C0.545557 69.893 5.10109 71.7992 8.62411 71.7992C12.9754 71.8106 17.1338 69.1102 17.1338 65.2411Z" fill="#4E4F51"/>
<path d="M28.3543 47.8872L17.1328 71.391H18.4093L22.3351 63.1933H35.6953L39.6268 71.391H40.8976L29.6818 47.8872H28.3543ZM35.2301 62.2176L35.2869 62.331H22.7435L22.8003 62.2176L23.3165 61.2531L28.9897 49.1523L34.7139 61.2701L35.2301 62.2176Z" fill="#4E4F51"/>
<path d="M63.9072 47.8872L52.6914 71.391H53.9565L57.888 63.1933H71.2539L75.1854 71.391H76.4505L65.2347 47.8872H63.9072ZM70.7831 62.2176L70.8398 62.331H58.3022L58.3589 62.2176L58.8695 61.2531L64.5426 49.1523L70.2668 61.2701L70.7831 62.2176Z" fill="#4E4F51"/>
<path d="M99.4619 47.8872L88.2461 71.391H89.5112L93.4427 63.1933H106.809L110.74 71.391H112.017L100.801 47.8872H99.4619ZM106.343 62.2176L106.406 62.331H93.8625L93.9249 62.2176L94.4298 61.2701L100.103 49.1693L105.821 61.2701L106.343 62.2176Z" fill="#4E4F51"/>
<path d="M90.6459 80.1389C90.1442 80.1197 89.6448 80.2143 89.185 80.4158C88.7251 80.6172 88.3169 80.9201 87.9909 81.3018V77.5859H87.3555V87.4515H87.9909V83.3612C87.9909 81.7273 88.9553 80.7742 90.6459 80.7459C91.3163 80.7188 91.9737 80.9365 92.4953 81.3586C92.786 81.6674 93.0077 82.0345 93.1456 82.4355C93.2835 82.8365 93.3345 83.2623 93.2952 83.6846V87.4515H93.9306V83.6846C93.9306 82.3968 93.5789 81.4437 92.8811 80.848C92.2435 80.3543 91.4514 80.103 90.6459 80.1389Z" fill="#4E4F51"/>
<path d="M102.643 80.1388C101.903 80.1411 101.18 80.3627 100.565 80.7758C99.951 81.1888 99.4729 81.7747 99.1914 82.4594C98.9099 83.1441 98.8377 83.8969 98.9839 84.6226C99.1301 85.3483 99.4882 86.0144 100.013 86.5367C100.538 87.059 101.205 87.414 101.932 87.5569C102.658 87.6999 103.41 87.6242 104.094 87.3396C104.777 87.055 105.361 86.5742 105.771 85.958C106.181 85.3418 106.4 84.6177 106.399 83.8774C106.409 83.3823 106.318 82.8902 106.133 82.4309C105.948 81.9716 105.671 81.5546 105.32 81.2052C104.969 80.8558 104.551 80.5812 104.091 80.3979C103.631 80.2146 103.138 80.1265 102.643 80.1388ZM105.763 83.8774C105.761 84.4941 105.576 85.0962 105.232 85.6078C104.888 86.1195 104.4 86.5176 103.829 86.7521C103.259 86.9865 102.632 87.0466 102.027 86.925C101.423 86.8033 100.868 86.5052 100.433 86.0684C99.9975 85.6316 99.7015 85.0756 99.582 84.4707C99.4625 83.8657 99.525 83.2389 99.7615 82.6694C99.998 82.0999 100.398 81.6133 100.911 81.2709C101.424 80.9286 102.026 80.7459 102.643 80.7459C103.057 80.7358 103.469 80.8098 103.853 80.9636C104.238 81.1174 104.587 81.3477 104.88 81.6406C105.173 81.9334 105.403 82.2827 105.557 82.6672C105.711 83.0517 105.785 83.4634 105.775 83.8774H105.763Z" fill="#4E4F51"/>
<path d="M111.931 77.5859H111.296V80.309H109.781V80.9161H111.296V87.4515H111.931V80.9161H113.696V80.309H111.931V77.5859Z" fill="#4E4F51"/>
<path d="M120.843 80.1388C120.347 80.1265 119.854 80.2146 119.393 80.3977C118.932 80.5808 118.513 80.8551 118.161 81.2043C117.808 81.5535 117.53 81.9703 117.343 82.4296C117.155 82.889 117.063 83.3814 117.071 83.8774C117.063 84.3714 117.155 84.8619 117.341 85.3195C117.528 85.7771 117.805 86.1924 118.155 86.5404C118.506 86.8885 118.923 87.1621 119.382 87.345C119.841 87.5279 120.332 87.6162 120.826 87.6047H120.872C121.597 87.6143 122.309 87.4065 122.916 87.0082C123.523 86.6099 123.996 86.0391 124.276 85.3695L124.355 85.1822H123.663L123.629 85.256C123.379 85.7924 122.977 86.2435 122.472 86.5532C121.968 86.8629 121.384 87.0174 120.792 86.9977C119.995 86.997 119.228 86.6887 118.652 86.1371C118.077 85.5855 117.736 84.833 117.7 84.0363H124.537V83.7016C124.513 82.7415 124.112 81.8294 123.421 81.1627C122.73 80.4959 121.804 80.1281 120.843 80.1388ZM117.746 83.4463C117.831 82.6903 118.196 81.9936 118.769 81.4936C119.343 80.9937 120.083 80.7269 120.843 80.7459H120.951C121.686 80.7717 122.388 81.0572 122.932 81.5516C123.476 82.046 123.828 82.7173 123.924 83.4463H117.746Z" fill="#4E4F51"/>
<path d="M130.006 77.5859H129.371V87.4572H130.006V77.5859Z" fill="#4E4F51"/>
<path d="M80.1317 82.5952C79.9335 82.5967 79.7439 82.6761 79.6038 82.8162C79.4637 82.9563 79.3843 83.1459 79.3828 83.3441C79.3828 83.4922 79.4267 83.637 79.509 83.7601C79.5913 83.8833 79.7083 83.9792 79.8451 84.0359C79.9819 84.0926 80.1325 84.1074 80.2778 84.0785C80.423 84.0496 80.5565 83.9783 80.6612 83.8736C80.7659 83.7689 80.8372 83.6354 80.8661 83.4902C80.895 83.3449 80.8802 83.1943 80.8235 83.0575C80.7668 82.9207 80.6709 82.8037 80.5477 82.7214C80.4246 82.6391 80.2798 82.5952 80.1317 82.5952Z" fill="#4E4F51"/>
</g>
<defs>
<clipPath id="clip0_1206_1389">
<rect width="130" height="90.2029" fill="white"/>
</clipPath>
</defs>
</svg>
